<svg width="40" height="40" viewBox="0 0 40 40" fill="none" xmlns="http://www.w3.org/2000/svg">
<path fill-rule="evenodd" clip-rule="evenodd" d="M20 3.33337C10.7953 3.33337 3.33334 10.7953 3.33334 20C3.33334 29.2048 10.7953 36.6667 20 36.6667C29.2048 36.6667 36.6667 29.2048 36.6667 20C36.6667 10.7953 29.2048 3.33337 20 3.33337ZM20 6.66671C27.3638 6.66671 33.3333 12.6362 33.3333 20C33.3333 27.3638 27.3638 33.3334 20 33.3334C12.6362 33.3334 6.66667 27.3638 6.66667 20C6.66667 12.6362 12.6362 6.66671 20 6.66671ZM26.1785 15.4882C25.5276 14.8373 24.4724 14.8373 23.8215 15.4882L18.3333 20.975L16.1785 18.8215L16.0215 18.6829C15.3677 18.1745 14.4223 18.2207 13.8215 18.8215C13.1706 19.4724 13.1706 20.5277 13.8215 21.1786L17.1548 24.5119L17.3118 24.6505C17.9657 25.1589 18.911 25.1127 19.5118 24.5119L26.1785 17.8452L26.3172 17.6882C26.8255 17.0344 26.7793 16.089 26.1785 15.4882Z" fill="#46beae"/>
</svg>
