<!-- <svg width="32" height="33" viewBox="0 0 32 33" fill="none" xmlns="http://www.w3.org/2000/svg">
<path fill-rule="evenodd" clip-rule="evenodd" d="M22.107 15.1826L19.0537 12.1354V12.1221C18.5203 11.5898 18.5203 10.7515 19.0537 10.2325C19.5737 9.70028 20.4137 9.70028 20.947 10.2325L26.2803 15.5552C26.5948 15.8609 26.7191 16.2933 26.6532 16.702C26.6021 17.0574 26.4088 17.3686 26.1333 17.576L20.9327 22.7662C20.6794 23.0057 20.3327 23.152 19.9861 23.152L19.9994 23.1667C19.6394 23.1667 19.2927 23.0203 19.0527 22.7808C18.5194 22.2618 18.5194 21.4102 19.0394 20.8913V20.878L22.0795 17.8439H6.66668C5.92001 17.8439 5.33334 17.2451 5.33334 16.5133C5.33334 15.7681 5.92001 15.1826 6.66668 15.1826H22.107Z" fill="white"/>
</svg> -->

<svg width="22" height="15" xmlns="http://www.w3.org/2000/svg" viewBox="0 0 384 512" fill="white"><!--!Font Awesome Free 6.5.2 by @fontawesome - https://fontawesome.com License - https://fontawesome.com/license/free Copyright 2024 Fonticons, Inc.--><path d="M169.4 470.6c12.5 12.5 32.8 12.5 45.3 0l160-160c12.5-12.5 12.5-32.8 0-45.3s-32.8-12.5-45.3 0L224 370.8 224 64c0-17.7-14.3-32-32-32s-32 14.3-32 32l0 306.7L54.6 265.4c-12.5-12.5-32.8-12.5-45.3 0s-12.5 32.8 0 45.3l160 160z"/></svg>